<?xml version="1.0" encoding="UTF-8" standalone="no"?><!DOCTYPE svg PUBLIC "-//W3C//DTD SVG 1.1//EN" "http://www.w3.org/Graphics/SVG/1.1/DTD/svg11.dtd"><svg width="100%" height="100%" viewBox="0 0 1120 1120" version="1.1" xmlns="http://www.w3.org/2000/svg" xmlns:xlink="http://www.w3.org/1999/xlink" xml:space="preserve" xmlns:serif="http://www.serif.com/" style="fill-rule:evenodd;clip-rule:evenodd;stroke-linejoin:round;stroke-miterlimit:2;"><g id="AE-Logo" serif:id="AE Logo"><path d="M229.254,890.51c-79.599,-1.755 -141.852,-66.881 -141.852,-146.896l0,-58.14c-0.369,-64.711 -23.236,-123.011 -87.402,-125.592c64.162,-2.589 87.028,-50.189 87.402,-114.9l0,-59.462c0,-77.613 65.443,-150.836 141.774,-156.286c1.766,-79.589 66.887,-141.831 146.895,-141.831l58.14,0c64.711,-0.369 123.011,-23.236 125.592,-87.402c2.589,64.162 50.189,87.028 114.9,87.402l59.462,0c77.613,0 150.836,65.443 156.286,141.774c79.589,1.766 141.831,66.887 141.831,146.895l0,58.14c0.369,64.711 23.236,123.011 87.402,125.592c-64.162,2.589 -87.028,50.189 -87.402,114.9l0,59.462c0,77.613 -65.443,150.836 -141.774,156.286c-1.766,79.589 -66.887,141.831 -146.895,141.831l-58.14,0c-64.711,0.369 -123.011,23.236 -125.592,87.402c-2.589,-64.162 -50.189,-87.028 -114.9,-87.402l-59.462,-0c-77.517,0 -150.654,-65.556 -156.266,-141.773Z" style="fill:#0029f2;"/><path d="M559.561,592.655l-64.834,98.646c-2.801,4.261 -6.979,6.73 -11.39,6.73l-192.487,0c-6.32,0 -9.709,-9.296 -5.564,-15.256l96.256,-138.415c2.801,-4.026 6.862,-6.338 11.129,-6.338l120.147,0c3.132,0 4.838,-4.574 2.823,-7.573l-39.437,-58.597c-2.801,-4.159 -6.928,-6.559 -11.28,-6.559l-145.288,0c-3.999,0 -7.827,-2.031 -10.605,-5.629l-20.311,-26.302c-3.387,-4.385 -0.9,-11.709 3.977,-11.709l190.641,0c4.411,0 8.59,2.469 11.39,6.73l64.835,98.649l65.541,-98.718c2.801,-4.215 6.957,-6.656 11.343,-6.656l192.388,0c6.486,0 9.813,9.715 5.329,15.579l-106.092,138.733c-2.779,3.634 -6.629,5.693 -10.653,5.693l-109.994,0c-3.125,0 -4.827,4.56 -2.826,7.559l39.058,58.551c2.801,4.196 6.95,6.619 11.32,6.619l145.522,0c4.23,0 8.254,2.276 11.055,6.246l18.281,25.92c3.143,4.459 0.612,11.474 -4.146,11.474l-189.241,0c-4.385,0 -8.542,-2.441 -11.343,-6.656l-65.543,-98.72Zm-149.821,-11.15c-4.452,0 -8.663,2.515 -11.464,6.84l-37.878,58.541c-1.949,3.013 -0.234,7.504 2.864,7.504l101.403,0c4.345,0 8.468,-2.395 11.269,-6.546l39.658,-58.763c2.019,-2.999 0.317,-7.577 -2.815,-7.577l-103.037,0Zm243.989,-116.369c-4.437,0 -8.638,2.497 -11.435,6.799l-38.122,58.574c-1.957,3.008 -0.247,7.517 2.86,7.517l97.314,0c4.068,-0.005 7.956,-2.105 10.742,-5.813l44.559,-59.315c2.207,-2.943 0.542,-7.762 -2.686,-7.762l-103.232,0Z" style="fill:#fff;"/></g></svg>