<?xml version="1.0" encoding="UTF-8" standalone="no"?><!DOCTYPE svg PUBLIC "-//W3C//DTD SVG 1.1//EN" "http://www.w3.org/Graphics/SVG/1.1/DTD/svg11.dtd"><svg width="100%" height="100%" viewBox="0 0 4167 4167" version="1.1" xmlns="http://www.w3.org/2000/svg" xmlns:xlink="http://www.w3.org/1999/xlink" xml:space="preserve" xmlns:serif="http://www.serif.com/" style="fill-rule:evenodd;clip-rule:evenodd;stroke-linejoin:round;stroke-miterlimit:2;"><g><path d="M917.089,3249.855c-280.808,-6.19 -506.872,-236.152 -506.872,-518.428l0,-205.106c-1.302,-228.286 -183.855,-433.744 -410.217,-442.848c226.348,-9.132 408.901,-177.27 410.217,-405.556l0,-209.77c0,-273.803 237.316,-531.904 506.596,-551.131c6.229,-280.774 236.175,-506.799 518.426,-506.799l205.106,0c228.286,-1.302 433.744,-183.855 442.848,-410.217c9.132,226.348 177.27,408.901 405.556,410.217l209.77,0c273.803,0 531.904,237.316 551.131,506.596c280.774,6.229 506.799,236.175 506.799,518.426l0,205.106c1.302,228.286 183.855,433.744 410.217,442.848c-226.348,9.132 -408.901,177.27 -410.217,405.556l0,209.77c0,273.803 -237.316,531.904 -506.596,551.131c-6.229,280.774 -236.175,506.799 -518.426,506.799l-205.106,0c-228.286,1.302 -433.744,183.855 -442.848,410.217c-9.132,-226.348 -177.27,-408.901 -405.556,-410.217l-209.77,-0c-273.462,0 -531.26,-237.717 -551.058,-506.594Z" style="fill:#0029f2;"/><path d="M2082.142,2197.888l-274.134,344.388c-11.842,14.875 -29.511,23.495 -48.162,23.495l-813.888,0c-26.723,0 -41.054,-32.452 -23.525,-53.261l406.995,-483.226c11.842,-14.055 29.012,-22.128 47.055,-22.128l508.012,0c13.244,0 20.458,-15.969 11.935,-26.438l-166.751,-204.57c-11.842,-14.521 -29.293,-22.9 -47.694,-22.9l-614.315,0c-16.909,0 -33.096,-7.092 -44.841,-19.651l-85.879,-91.824c-14.321,-15.309 -3.807,-40.879 16.814,-40.879l806.082,0c18.651,0 36.32,8.62 48.162,23.495l274.14,344.397l277.125,-344.638c11.842,-14.714 29.417,-23.237 47.959,-23.237l813.467,0c27.423,0 41.493,33.915 22.531,54.387l-448.585,484.336c-11.748,12.688 -28.031,19.876 -45.045,19.876l-465.085,0c-13.213,0 -20.411,15.92 -11.951,26.389l165.146,204.409c11.842,14.65 29.386,23.109 47.866,23.109l615.304,0c17.887,0 34.902,7.944 46.744,21.806l77.299,90.489c13.291,15.567 2.586,40.058 -17.529,40.058l-800.161,0c-18.542,0 -36.117,-8.523 -47.959,-23.237l-277.132,-344.646Zm-633.485,-38.925c-18.822,0 -36.632,8.78 -48.473,23.881l-160.158,204.377c-8.239,10.517 -0.991,26.196 12.111,26.196l428.759,0c18.37,0 35.806,-8.362 47.648,-22.851l167.686,-205.149c8.539,-10.469 1.34,-26.454 -11.904,-26.454l-435.668,0Zm1031.652,-406.261c-18.76,0 -36.523,8.716 -48.349,23.736l-161.188,204.489c-8.274,10.501 -1.044,26.245 12.091,26.245l411.47,0c17.202,-0.016 33.64,-7.349 45.419,-20.295l188.409,-207.079c9.333,-10.276 2.29,-27.097 -11.359,-27.097l-436.494,0Z" style="fill:#fff;"/></g></svg>