<svg width="300" height="300" viewBox="0 0 300 300" fill="none" xmlns="http://www.w3.org/2000/svg">
<g clip-path="url(#clip0_2473_490)">
<path d="M148.734 0C149.398 16.4581 162.903 29.6093 179.502 29.705H194.716C214.733 29.705 230.785 46.2887 232 66C252.59 66.2522 269.524 82.0505 269.524 102.701L269.525 117.553L269.524 117.735L269.525 117.916C269.619 134.515 282.77 148.021 299.23 148.683V148.733C282.77 149.396 269.619 162.902 269.525 179.501L269.524 179.563V179.787L269.525 179.863L269.524 194.715C269.524 214.733 251.712 231.786 232 233C231.748 253.59 217.178 269.524 196.528 269.524H181.313C164.714 269.618 151.209 282.77 150.546 299.23H150.495L150.454 298.46C149.41 282.363 136.067 269.617 119.728 269.524H104.513C84.4953 269.524 66.214 253.712 65 234C44.4096 233.748 29.706 217.177 29.706 196.527V181.312C29.6103 164.713 16.4581 151.208 0 150.545V150.494C16.4581 149.832 29.6113 136.326 29.706 119.727V104.512C29.706 84.4944 45.2877 68.214 65 67C65.2532 46.4096 82.0525 29.706 102.702 29.706L117.554 29.705H117.917C134.516 29.6103 148.022 16.4591 148.684 0L148.734 0Z" fill="#0029F2"/>
<path d="M129.239 120C130.436 120 131.57 120.536 132.33 121.461L149.939 142.895V157.105L132.33 178.539C131.57 179.464 130.436 180 129.239 180H77.004C75.2889 180 74.3692 177.982 75.4942 176.688L101.615 146.639C102.375 145.765 103.477 145.263 104.635 145.263H137.239C138.089 145.263 138.552 144.27 138.005 143.619L127.303 130.898C126.543 129.995 125.423 129.474 124.242 129.474H84.8155C83.7303 129.474 82.6914 129.033 81.9376 128.252L76.4259 122.542C75.5068 121.59 76.1816 120 77.505 120H129.239ZM109.267 154.703C108.059 154.703 106.916 155.249 106.156 156.188L95.8771 168.897C95.3483 169.551 95.8135 170.526 96.6544 170.526H124.172C125.351 170.526 126.47 170.006 127.23 169.105L137.992 156.348C138.54 155.697 138.078 154.703 137.228 154.703H109.267Z" fill="white"/>
<path d="M222.996 120.001C224.756 120.001 225.659 122.11 224.442 123.383L195.652 153.501C194.898 154.29 193.853 154.737 192.761 154.737H162.912C162.064 154.737 161.602 155.727 162.145 156.378L172.744 169.089C173.504 170 174.63 170.526 175.816 170.526H215.306C216.454 170.526 217.546 171.02 218.306 171.882L223.267 177.509C224.12 178.477 223.433 180 222.142 180H170.788C169.598 180 168.47 179.47 167.71 178.555L149.896 157.09V142.911L167.71 121.446C168.47 120.531 169.598 120.001 170.788 120.001H222.996ZM175.478 129.44C174.274 129.44 173.134 129.982 172.375 130.916L162.03 143.632C161.499 144.285 161.963 145.264 162.806 145.264H189.214C190.318 145.263 191.373 144.807 192.129 144.002L204.221 131.125C204.82 130.486 204.368 129.44 203.492 129.44H175.478Z" fill="white"/>
</g>
<defs>
<clipPath id="clip0_2473_490">
<rect width="300" height="300" fill="white"/>
</clipPath>
</defs>
</svg>
