<svg width="100" height="40" viewBox="0 0 100 40" fill="none" xmlns="http://www.w3.org/2000/svg">
<path d="M35.3807 0C36.5658 8.66887e-06 37.69 0.525295 38.45 1.43457L50.0067 15.2627V24.7363L38.45 38.5645C37.69 39.4738 36.5658 39.999 35.3807 39.999H2.00374C0.280477 39.999 -0.635818 37.9657 0.505692 36.6748L16.8504 18.1924C17.6096 17.334 18.7006 16.8419 19.8465 16.8418H40.6795C41.5332 16.8414 41.9935 15.8401 41.4383 15.1914L35.0389 7.71484C34.279 6.82713 33.1693 6.31554 32.0008 6.31543H6.36507C5.29173 6.31534 4.2636 5.884 3.51155 5.11816L0.990067 2.55078C0.0588268 1.602 0.730929 0.000250626 2.06038 0H35.3807ZM23.0155 23.1357C21.8197 23.1358 20.6863 23.6704 19.9266 24.5938L13.7928 32.0488C13.2565 32.7012 13.7206 33.6834 14.5653 33.6836H31.9539C33.1207 33.6835 34.2292 33.1744 34.9891 32.2891L41.4285 24.7861C41.9847 24.1376 41.5242 23.1359 40.6698 23.1357H23.0155Z" fill="#0029F2"/>
<path d="M97.9941 0.000549316C99.7625 0.000549147 100.662 2.12731 99.4287 3.39508L81.3867 21.9468C80.6337 22.721 79.5996 23.1578 78.5195 23.1578H59.5166C58.6649 23.1581 58.2038 24.1557 58.7549 24.8052L65.0898 32.272C65.8498 33.1676 66.965 33.6841 68.1396 33.6841H93.7793C94.9156 33.6841 95.9981 34.1674 96.7568 35.0132L98.9854 37.4986C99.8516 38.4645 99.1666 39.9996 97.8691 39.9996H64.7305C63.5527 39.9995 62.4347 39.4805 61.6748 38.5806L49.9775 24.7261V15.274L61.6748 1.41949C62.4347 0.519652 63.5527 0.000654975 64.7305 0.000549316H97.9941ZM67.9199 6.29352C66.7281 6.29352 65.5978 6.8246 64.8379 7.74274L58.6621 15.2047C58.1231 15.8565 58.5867 16.8421 59.4326 16.8423H76.1074C77.1998 16.8422 78.2444 16.3949 78.999 15.605L86.2793 7.98395C86.8871 7.34769 86.4366 6.29354 85.5566 6.29352H67.9199Z" fill="#0029F2"/>
</svg>
