<svg width="146" height="146" viewBox="0 0 146 146" fill="none" xmlns="http://www.w3.org/2000/svg">
<rect width="146" height="146" rx="32" fill="#0029F2"/>
<path d="M58.3807 53C59.5658 53 60.69 53.5253 61.45 54.4346L73.0067 68.2627V77.7363L61.45 91.5645C60.69 92.4738 59.5658 92.999 58.3807 92.999H25.0037C23.2805 92.999 22.3642 90.9657 23.5057 89.6748L39.8504 71.1924C40.6096 70.334 41.7006 69.8419 42.8465 69.8418H63.6795C64.5332 69.8414 64.9935 68.8401 64.4383 68.1914L58.0389 60.7148C57.279 59.8271 56.1693 59.3155 55.0008 59.3154H29.3651C28.2917 59.3153 27.2636 58.884 26.5116 58.1182L23.9901 55.5508C23.0588 54.602 23.7309 53.0003 25.0604 53H58.3807ZM46.0155 76.1357C44.8197 76.1358 43.6863 76.6704 42.9266 77.5938L36.7928 85.0488C36.2565 85.7012 36.7206 86.6834 37.5653 86.6836H54.9539C56.1207 86.6835 57.2292 86.1744 57.9891 85.2891L64.4285 77.7861C64.9847 77.1376 64.5242 76.1359 63.6698 76.1357H46.0155Z" fill="white"/>
<path d="M120.994 53.0005C122.763 53.0005 123.662 55.1273 122.429 56.3951L104.387 74.9468C103.634 75.721 102.6 76.1578 101.52 76.1578H82.5166C81.6649 76.1581 81.2038 77.1557 81.7549 77.8052L88.0898 85.272C88.8498 86.1676 89.965 86.6841 91.1396 86.6841H116.779C117.916 86.6841 118.998 87.1674 119.757 88.0132L121.985 90.4986C122.852 91.4645 122.167 92.9996 120.869 92.9996H87.7305C86.5527 92.9995 85.4347 92.4805 84.6748 91.5806L72.9775 77.7261V68.274L84.6748 54.4195C85.4347 53.5197 86.5527 53.0007 87.7305 53.0005H120.994ZM90.9199 59.2935C89.7281 59.2935 88.5978 59.8246 87.8379 60.7427L81.6621 68.2047C81.1231 68.8565 81.5867 69.8421 82.4326 69.8423H99.1074C100.2 69.8422 101.244 69.3949 101.999 68.605L109.279 60.9839C109.887 60.3477 109.437 59.2935 108.557 59.2935H90.9199Z" fill="white"/>
</svg>
