<svg width="146" height="146" viewBox="0 0 146 146" fill="none" xmlns="http://www.w3.org/2000/svg">
    <rect width="146" height="146" rx="32" fill="#0029F2" style="box-shadow: 4px 4px 4px 4px #0029F2"/>
    <path d="M57.6934 54C58.8103 54 59.8765 54.467 60.6338 55.2881L73.0029 68.7021V77.8281L60.6338 91.2422C59.8765 92.0634 58.8104 92.5312 57.6934 92.5312H22.0156C20.2458 92.5311 19.348 90.4006 20.584 89.1338L37.8574 71.4297C38.6102 70.6582 39.6428 70.2236 40.7207 70.2236H63.0781C63.9552 70.2236 64.4077 69.1749 63.8057 68.5371L57.0078 61.3379C56.2522 60.5376 55.1993 60.084 54.0986 60.084H26.4033C25.3979 60.084 24.4293 59.7053 23.6904 59.0234L21.0674 56.6025C20.0641 55.6764 20.7196 54.0001 22.085 54H57.6934ZM44.0762 76.2852C42.9483 76.2852 41.8724 76.7616 41.1143 77.5967L34.5986 84.7744C34.0154 85.4169 34.4712 86.4471 35.3389 86.4473H54.043C55.1416 86.4473 56.1918 85.9949 56.9473 85.1973L63.7881 77.9727C64.3913 77.3353 63.9399 76.2855 63.0625 76.2852H44.0762Z" fill="white"/>
    <path d="M123.985 54C125.801 54.0002 126.677 56.2248 125.349 57.4629L106.283 75.2334C105.543 75.9235 104.568 76.3076 103.556 76.3076H83.1514C82.2764 76.3076 81.8233 77.3513 82.4209 77.9902L89.1504 85.1807C89.9067 85.9887 90.9646 86.4473 92.0713 86.4473H119.781C120.849 86.4473 121.873 86.8746 122.624 87.6338L124.942 89.9756C125.88 90.9228 125.208 92.5312 123.876 92.5312H88.4482C87.3381 92.5313 86.2771 92.0692 85.5205 91.2568L73.0029 77.8184V68.7129L85.5205 55.2734C86.2771 54.4611 87.3381 54 88.4482 54H123.985ZM91.8271 60.0625C90.7033 60.0626 89.6318 60.5353 88.874 61.3652L82.3135 68.5488C81.7275 69.1906 82.1828 70.2233 83.0518 70.2236H100.986C102.011 70.2236 102.997 69.8302 103.74 69.125L111.474 61.7871C112.129 61.1651 111.689 60.0626 110.785 60.0625H91.8271Z" fill="white"/>
</svg>
